<?xml version="1.0" standalone="no"?>
<!DOCTYPE svg PUBLIC "-//W3C//DTD SVG 20010904//EN"
 "http://www.w3.org/TR/2001/REC-SVG-20010904/DTD/svg10.dtd">
<svg version="1.0" xmlns="http://www.w3.org/2000/svg"
 width="375.000000pt" height="100.000000pt" viewBox="0 0 375.000000 100.000000"
 preserveAspectRatio="xMidYMid meet">

<g transform="translate(0.000000,100.000000) scale(0.100000,-0.100000)"
fill="#000000" stroke="none">
<path d="M2099 985 c-54 -29 -69 -121 -43 -270 l6 -40 -42 48 c-63 72 -108 92
-205 92 -63 0 -89 -5 -121 -22 -48 -26 -104 -85 -123 -130 l-13 -33 -19 24
c-14 18 -19 41 -19 85 0 33 -5 71 -11 84 -13 29 -58 57 -94 57 -34 0 -80 -24
-90 -47 -6 -13 -11 -1 -15 41 -10 80 -41 111 -110 111 -41 0 -54 -5 -77 -28
l-28 -27 0 -330 0 -330 28 -27 c23 -23 36 -28 78 -28 45 0 54 4 80 33 27 30
29 38 29 117 0 84 0 85 25 85 l25 0 0 -116 c0 -64 5 -134 11 -155 35 -114 191
-194 279 -142 39 22 50 52 50 130 0 58 2 64 18 58 42 -17 121 -18 146 -2 22
15 27 15 56 0 40 -20 94 -12 128 19 17 16 26 19 29 10 7 -18 57 -42 88 -42 36
0 81 28 94 57 6 13 11 54 11 91 l0 67 34 -50 c45 -66 80 -98 146 -132 49 -25
65 -28 150 -28 85 0 101 4 153 30 66 33 127 94 159 159 l21 44 24 -48 c29 -59
108 -134 171 -163 38 -17 66 -22 142 -21 83 0 102 3 151 27 67 32 142 109 171
175 30 67 37 236 13 317 -29 100 -90 173 -185 222 -49 25 -66 28 -150 28 -84
0 -101 -3 -150 -28 -72 -37 -131 -96 -164 -162 -14 -30 -26 -59 -26 -64 0 -15
-11 -14 -31 5 -13 11 -16 25 -12 55 9 62 -28 109 -124 156 -72 36 -82 38 -168
38 -69 -1 -101 -6 -136 -21 -53 -25 -112 -74 -151 -128 l-28 -39 0 67 c0 64
-2 70 -34 102 -28 28 -41 34 -77 34 -24 -1 -56 -7 -70 -15z m108 -57 c29 -27
29 -65 1 -95 -42 -45 -111 -15 -111 47 0 62 65 90 110 48z m-972 -13 c23 -22
25 -32 25 -120 l0 -95 25 0 c33 0 75 42 75 74 0 36 39 60 73 47 33 -13 43 -50
28 -103 -12 -37 -11 -42 12 -67 45 -48 51 -70 55 -214 4 -126 6 -139 25 -152
12 -8 31 -15 44 -15 47 0 69 -56 36 -92 -22 -24 -69 -23 -123 5 -82 41 -99 88
-100 264 0 104 -2 113 -22 127 -14 10 -44 16 -75 16 l-53 0 0 -100 c0 -87 -3
-103 -20 -120 -27 -27 -65 -26 -84 2 -13 19 -16 62 -16 265 0 133 4 253 9 267
9 21 23 30 54 35 4 0 19 -10 32 -24z m1475 -2 c89 -36 141 -94 120 -133 -18
-33 -56 -36 -98 -7 -93 64 -187 64 -255 -1 -42 -39 -57 -75 -57 -132 0 -57 15
-93 57 -132 74 -70 197 -61 266 21 42 51 37 61 -35 61 -43 0 -67 5 -80 17 -22
20 -23 51 -1 75 14 15 32 18 123 18 133 0 146 -7 143 -79 -4 -98 -65 -191
-157 -239 -44 -23 -63 -27 -136 -27 -73 0 -92 4 -136 27 -60 31 -109 84 -137
147 -28 62 -28 169 0 232 63 142 238 211 383 152z m660 5 c76 -24 150 -94 181
-173 19 -50 15 -164 -8 -216 -28 -63 -77 -115 -137 -147 -44 -23 -63 -27 -136
-27 -73 0 -92 4 -136 27 -102 53 -158 148 -158 263 1 206 189 336 394 273z
m-1443 -184 c26 -15 53 -43 70 -71 24 -41 27 -59 31 -158 4 -104 3 -114 -17
-134 -25 -25 -58 -27 -83 -4 -15 13 -18 32 -18 115 0 110 -12 147 -55 166 -42
19 -74 14 -106 -17 -41 -41 -41 -101 0 -142 18 -18 40 -29 57 -29 55 0 82 -53
47 -92 -34 -38 -130 -14 -189 47 -170 177 49 443 263 319z m277 20 c24 -24 24
-359 -1 -386 -20 -22 -51 -23 -75 -1 -16 14 -18 34 -18 191 0 149 2 178 17
194 20 22 56 23 77 2z m356 -154 c0 -80 0 -81 -22 -69 -29 15 -57 49 -58 71 0
21 48 78 66 78 11 0 14 -18 14 -80z m-727 -87 c-7 -2 -19 -2 -25 0 -7 3 -2 5
12 5 14 0 19 -2 13 -5z"/>
<path d="M3180 798 c-132 -67 -132 -249 0 -315 169 -86 341 101 237 258 -28
42 -99 79 -152 79 -22 0 -61 -10 -85 -22z m145 -132 c18 -8 41 -26 50 -40 16
-24 16 -28 1 -51 -25 -38 -63 -58 -111 -58 -48 0 -86 20 -111 58 -15 23 -15
27 1 51 32 49 106 66 170 40z"/>
<path d="M235 981 c-49 -21 -60 -48 -60 -146 0 -85 2 -96 24 -119 15 -16 41
-29 63 -32 l38 -7 0 -198 0 -199 29 -32 c26 -29 35 -33 81 -33 46 0 55 4 81
33 l29 32 0 198 0 197 44 11 44 10 6 -36 c17 -106 172 -134 221 -40 21 40 21
269 0 309 -30 60 -131 77 -179 32 l-22 -21 -22 23 c-21 21 -32 22 -190 24 -92
1 -176 -1 -187 -6z m341 -66 c45 -45 12 -95 -63 -95 l-43 0 0 -213 c0 -176 -3
-216 -16 -235 -19 -28 -57 -29 -84 -2 -19 19 -20 33 -20 235 l0 215 -43 0
c-75 0 -108 50 -63 95 24 24 29 25 166 25 137 0 142 -1 166 -25z m207 -7 c13
-15 17 -38 17 -91 0 -59 -4 -75 -22 -94 -28 -30 -63 -29 -93 2 -21 20 -25 34
-25 84 0 33 5 71 11 85 22 47 77 54 112 14z"/>
</g>
</svg>
