<svg width="35" height="34" viewBox="0 0 35 34" fill="none" xmlns="http://www.w3.org/2000/svg">
<path d="M17.461 28.3333H28.7203V31.1667H17.461C9.68793 31.1667 3.38696 24.8243 3.38696 17C3.38696 9.17576 9.68793 2.83334 17.461 2.83334C25.2341 2.83334 31.5351 9.17576 31.5351 17C31.5396 20.066 30.5514 23.0499 28.7203 25.5H24.909C26.8854 23.7456 28.1878 21.3489 28.5894 18.7274C28.9911 16.1059 28.4665 13.4256 27.1071 11.1534C25.7477 8.88108 23.6395 7.16074 21.1497 6.2919C18.66 5.42307 15.9463 5.4608 13.4813 6.39852C11.0163 7.33624 8.95618 9.11454 7.65962 11.4238C6.36307 13.733 5.91225 16.4268 6.38567 19.0361C6.85909 21.6454 8.22676 24.005 10.2505 25.7038C12.2743 27.4027 14.8259 28.3332 17.461 28.3333ZM17.461 14.1667C16.7145 14.1667 15.9985 13.8682 15.4707 13.3368C14.9428 12.8055 14.6462 12.0848 14.6462 11.3333C14.6462 10.5819 14.9428 9.86123 15.4707 9.32987C15.9985 8.79852 16.7145 8.50001 17.461 8.50001C18.2076 8.50001 18.9235 8.79852 19.4514 9.32987C19.9793 9.86123 20.2759 10.5819 20.2759 11.3333C20.2759 12.0848 19.9793 12.8055 19.4514 13.3368C18.9235 13.8682 18.2076 14.1667 17.461 14.1667ZM11.8314 19.8333C11.0849 19.8333 10.3689 19.5348 9.84103 19.0035C9.31315 18.4721 9.01659 17.7515 9.01659 17C9.01659 16.2486 9.31315 15.5279 9.84103 14.9965C10.3689 14.4652 11.0849 14.1667 11.8314 14.1667C12.5779 14.1667 13.2939 14.4652 13.8218 14.9965C14.3497 15.5279 14.6462 16.2486 14.6462 17C14.6462 17.7515 14.3497 18.4721 13.8218 19.0035C13.2939 19.5348 12.5779 19.8333 11.8314 19.8333ZM23.0907 19.8333C22.3441 19.8333 21.6282 19.5348 21.1003 19.0035C20.5724 18.4721 20.2759 17.7515 20.2759 17C20.2759 16.2486 20.5724 15.5279 21.1003 14.9965C21.6282 14.4652 22.3441 14.1667 23.0907 14.1667C23.8372 14.1667 24.5532 14.4652 25.081 14.9965C25.6089 15.5279 25.9055 16.2486 25.9055 17C25.9055 17.7515 25.6089 18.4721 25.081 19.0035C24.5532 19.5348 23.8372 19.8333 23.0907 19.8333ZM17.461 25.5C16.7145 25.5 15.9985 25.2015 15.4707 24.6701C14.9428 24.1388 14.6462 23.4181 14.6462 22.6667C14.6462 21.9152 14.9428 21.1946 15.4707 20.6632C15.9985 20.1319 16.7145 19.8333 17.461 19.8333C18.2076 19.8333 18.9235 20.1319 19.4514 20.6632C19.9793 21.1946 20.2759 21.9152 20.2759 22.6667C20.2759 23.4181 19.9793 24.1388 19.4514 24.6701C18.9235 25.2015 18.2076 25.5 17.461 25.5Z" fill="white"/>
</svg>
