<svg width="37" height="39" viewBox="0 0 37 39" fill="none" xmlns="http://www.w3.org/2000/svg">
<path d="M33.4262 4H35.3498V36.2105C35.3498 37.1989 34.2016 38 32.785 38H31.5027C30.0861 38 28.9379 37.1989 28.9379 36.2105V27.2632H26.3731C26.3731 6.68421 33.4262 4 33.4262 4ZM10.9845 38H9.70213C8.28561 38 7.13737 37.1989 7.13737 36.2105V18.3158C6.2824 18.3158 5.42756 18.3158 4.35882 17.4956C3.29021 16.6755 2.32843 15.0351 1.68724 13.022C1.04604 9.36842 3.29022 4 3.29022 4L4.89307 12.5001H5.53439L7.77856 4.00009L10.0227 12.5001H10.6639L12.9081 4L15.1523 12.5001H15.7935L17.3964 4C17.3964 4 19.6406 9.36842 18.9994 13.0219C18.3582 15.0351 17.3964 16.6755 16.3278 17.4956C15.2591 18.3158 14.4042 18.3158 13.5493 18.3158V36.2105C13.5493 37.1989 12.401 38 10.9845 38Z" stroke="white" stroke-width="2"/>
</svg>
