<svg width="36" height="37" viewBox="0 0 36 37" fill="none" xmlns="http://www.w3.org/2000/svg">
<path d="M29.3364 15.8784L31.4887 28.8694C31.7353 30.357 31.2521 31.8727 30.1912 32.9391L27.8165 35.3262L23.48 21.4332" stroke="white" stroke-width="2.06547" stroke-linecap="round" stroke-linejoin="round"/>
<path d="M15.3 13.2885L1.58887 8.96391L3.96355 6.5768C5.02446 5.5104 6.53223 5.02464 8.01213 5.27249L20.9355 7.4361" stroke="white" stroke-width="2.06547" stroke-linecap="round" stroke-linejoin="round"/>
<path d="M34.4936 4.12765L34.3887 3.73736C34.2031 3.04524 33.6688 2.50237 32.9824 2.30829L32.5981 2.20221C31.3966 1.76815 30.0546 2.04463 29.1197 2.91874L9.97023 22.1384L5.7631 21.5766L2.27673 25.1206L8.88974 27.9894L11.6222 34.7985L15.1869 31.1771L14.6911 26.8886L33.8054 7.67762C34.6631 6.70977 34.927 5.34849 34.4936 4.12765V4.12765Z" stroke="white" stroke-width="2.06547" stroke-linejoin="round"/>
</svg>
